<?xml version="1.0" encoding="UTF-8"?>
<svg width="1200pt" height="1200pt" version="1.1" viewBox="0 0 1200 1200" xmlns="http://www.w3.org/2000/svg">
 <path d="m1125 975v-750c0-39.781-15.805-77.938-43.934-106.07s-66.285-43.934-106.07-43.934h-750c-39.781 0-77.938 15.805-106.07 43.934s-43.934 66.285-43.934 106.07v750c0 39.781 15.805 77.938 43.934 106.07s66.285 43.934 106.07 43.934h750c39.781 0 77.938-15.805 106.07-43.934s43.934-66.285 43.934-106.07zm-551.51-85.988-187.5-187.5c-9.1992-9.5234-12.695-23.195-9.1914-35.965 3.5-12.773 13.477-22.75 26.25-26.25 12.77-3.5039 26.441-0.007813 35.965 9.1914l123.49 123.49v-434.48c0-13.398 7.1484-25.777 18.75-32.477 11.602-6.6992 25.898-6.6992 37.5 0 11.602 6.6992 18.75 19.078 18.75 32.477v434.48l123.49-123.49c9.5234-9.1992 23.195-12.695 35.965-9.1914 12.773 3.5 22.75 13.477 26.25 26.25 3.5039 12.77 0.007813 26.441-9.1914 35.965l-187.5 187.5c-7.0312 7.0312-16.566 10.98-26.512 10.98s-19.48-3.9492-26.512-10.98z"/>
</svg>
