<?xml version="1.0" encoding="UTF-8"?>
<svg width="1200pt" height="1200pt" version="1.1" viewBox="0 0 1200 1200" xmlns="http://www.w3.org/2000/svg">
 <path d="m75 225v750c0 39.781 15.805 77.938 43.934 106.07s66.285 43.934 106.07 43.934h750c39.781 0 77.938-15.805 106.07-43.934s43.934-66.285 43.934-106.07v-750c0-39.781-15.805-77.938-43.934-106.07s-66.285-43.934-106.07-43.934h-750c-39.781 0-77.938 15.805-106.07 43.934s-43.934 66.285-43.934 106.07zm364.01 160.99 310.99 310.99v-171.98c0-13.398 7.1484-25.777 18.75-32.477 11.602-6.6992 25.898-6.6992 37.5 0 11.602 6.6992 18.75 19.078 18.75 32.477v262.5c0 9.9453-3.9492 19.484-10.984 26.516-7.0312 7.0352-16.57 10.984-26.516 10.984h-262.5c-13.398 0-25.777-7.1484-32.477-18.75-6.6992-11.602-6.6992-25.898 0-37.5 6.6992-11.602 19.078-18.75 32.477-18.75h171.98l-310.99-310.99c-9.1992-9.5234-12.695-23.195-9.1914-35.965 3.5-12.773 13.477-22.75 26.25-26.25 12.77-3.5039 26.441-0.007813 35.965 9.1914z"/>
</svg>
